<?xml version="1.0" encoding="utf-8"?>
<!-- Generator: Adobe Illustrator 23.0.1, SVG Export Plug-In . SVG Version: 6.00 Build 0)  -->
<svg version="1.1" id="图层_2" xmlns="http://www.w3.org/2000/svg" xmlns:xlink="http://www.w3.org/1999/xlink" x="0px" y="0px"
	 width="64px" height="64px" viewBox="0 0 64 64" style="enable-background:new 0 0 64 64;" xml:space="preserve">
<style type="text/css">
	.st0{fill:#667898;}
</style>
<path class="st0" d="M58.4,18.9L41.2,1.7c-0.4-0.4-1-0.7-1.7-0.7H11.2C9.5,1,7.9,1.7,6.8,2.9C5.6,4,4.9,5.6,4.9,7.4v49.2
	c0,1.8,0.7,3.4,1.9,4.5c1.2,1.2,2.7,1.9,4.5,1.9h41.5c1.7,0,3.3-0.7,4.4-1.8l0.1-0.1c1.2-1.1,1.9-2.8,1.9-4.5v-36
	C59.1,20,58.9,19.4,58.4,18.9L58.4,18.9z M40.9,8.2L40.9,8.2l11,11h-8.4c-0.7,0-1.3-0.3-1.8-0.8l-0.1-0.1c-0.4-0.5-0.7-1.1-0.7-1.8
	V8.2L40.9,8.2z M54.4,56.6L54.4,56.6c0,0.4-0.2,0.8-0.5,1.2h0c-0.3,0.3-0.7,0.5-1.1,0.5H11.2c-0.4,0-0.8-0.2-1.1-0.5
	c-0.3-0.3-0.5-0.7-0.5-1.2V7.4c0-0.5,0.2-0.9,0.5-1.2c0.3-0.3,0.7-0.5,1.1-0.5h26.8v10.8c0,1.5,0.6,2.8,1.5,3.8l0.1,0.1
	c1,1,2.3,1.6,3.8,1.6h10.9V56.6L54.4,56.6z M17.9,26.4L17.9,26.4L17.9,26.4h-0.1h0v0h0h-0.1h0l0,0h0l-0.1,0h0h0l0,0l0,0l0,0l-0.1,0
	l0,0l-0.1,0.1l-0.1,0.1h0l-0.1,0l0,0.1l0,0l0,0h0v0L16.8,27v0l-0.1,0.1l-0.1,0.1v0.1h0v0v0l0,0h0v0l0,0v0.1h0v0v0v0v0l0,0.1v0.1v0v0
	l0,0v22h0v0.1v0v0.1h0l0,0l0,0.2v0l0,0l0,0l0,0l0,0v0l0,0v0l0.1,0.1v0l0.1,0.1v0l0,0l0,0v0l0,0h0v0l0.1,0v0h0l0.1,0l0.1,0l0.1,0.1
	l0,0h0l0,0l0,0l0,0l0,0l0.1,0h0l0,0l0,0l0,0h0.1l0.1,0h0.1l0,0h0l0.1,0h0.1H18h28.1h0.1h0.1l0,0l0,0h0h0l0,0h0h0l0,0h0l0,0h0l0,0
	l0,0l0,0h0l0,0l0,0h0l0,0l0,0l0.1,0l0,0l0,0l0.1-0.1l0,0l0,0v0h0l0,0l0,0l0,0v0l0,0l0,0l0,0l0,0l0,0v0l0,0l0,0l0,0h0v0l0-0.1l0,0h0
	v0v0l0,0l0,0v0l0,0v0v0l0,0v0v0l0,0v0h0v-0.1l0,0l0,0v-0.1h0v-0.1l0,0v-7.3l0-0.1l0-0.1v-7.1l0-0.1l0-0.1v-7.3v0v0l0-0.1v0l0,0v0
	l0,0v-0.1l0,0v0l0,0v0l0,0v0l0,0l0-0.1v0v0l-0.1,0l0-0.1l-0.1,0l0-0.1h0l0,0l0,0h0l-0.1-0.1l-0.1-0.1l0,0l-0.1-0.1l-0.1,0l-0.1,0
	l0,0l0,0h0h0l0,0h0h0l-0.1,0h0v0h0h-0.1h-0.1H17.9L17.9,26.4z M25.9,48.2L25.9,48.2h-6.5v-4.4h6.5V48.2L25.9,48.2z M25.9,40.9
	L25.9,40.9h-6.5v-4.4h6.5V40.9L25.9,40.9z M25.9,33.7L25.9,33.7h-6.5v-4.4h6.5V33.7L25.9,33.7z M35.2,48.2L35.2,48.2h-6.5v-4.4h6.5
	V48.2L35.2,48.2z M35.2,40.9L35.2,40.9h-6.5v-4.4h6.5V40.9L35.2,40.9z M35.2,33.7L35.2,33.7h-6.5v-4.4h6.5V33.7L35.2,33.7z
	 M44.6,48.2L44.6,48.2h-6.5v-4.4h6.5V48.2L44.6,48.2z M44.6,40.9L44.6,40.9h-6.5v-4.4h6.5V40.9L44.6,40.9z M44.6,33.7L44.6,33.7
	h-6.5v-4.4h6.5V33.7L44.6,33.7z"/>
</svg>
