<?xml version="1.0" encoding="utf-8"?>
<!-- Generator: Adobe Illustrator 23.0.1, SVG Export Plug-In . SVG Version: 6.00 Build 0)  -->
<svg version="1.1" id="图层_2" xmlns="http://www.w3.org/2000/svg" xmlns:xlink="http://www.w3.org/1999/xlink" x="0px" y="0px"
	 width="64px" height="64px" viewBox="0 0 64 64" style="enable-background:new 0 0 64 64;" xml:space="preserve">
<style type="text/css">
	.st0{fill:#667898;}
</style>
<path class="st0" d="M60.6,5.5H3.4C2.1,5.5,1,6.6,1,7.9v48.2c0,1.3,1.1,2.4,2.4,2.4h57.2c1.3,0,2.4-1.1,2.4-2.4V7.9
	C63,6.6,61.9,5.5,60.6,5.5L60.6,5.5z M58.2,53.7L58.2,53.7H5.8V10.3h52.5V53.7L58.2,53.7z M11.1,49.4L11.1,49.4H53
	c0.8,0,1.4-0.6,1.4-1.4V16c0-0.8-0.6-1.4-1.4-1.4H11.1c-0.8,0-1.4,0.6-1.4,1.4v32C9.6,48.8,10.3,49.4,11.1,49.4L11.1,49.4z
	 M12.5,17.4L12.5,17.4h39v29.1h-39V17.4L12.5,17.4z"/>
</svg>
