<?xml version="1.0" encoding="utf-8"?>
<!-- Generator: Adobe Illustrator 23.0.1, SVG Export Plug-In . SVG Version: 6.00 Build 0)  -->
<svg version="1.1" id="图层_2" xmlns="http://www.w3.org/2000/svg" xmlns:xlink="http://www.w3.org/1999/xlink" x="0px" y="0px"
	 width="64px" height="64px" viewBox="0 0 64 64" style="enable-background:new 0 0 64 64;" xml:space="preserve">
<style type="text/css">
	.st0{fill:#667898;}
</style>
<path class="st0" d="M19,1c5,0,9.5,2,12.7,5.3C35,9.5,37,14,37,19c0,5-2,9.4-5.3,12.7C28.5,35,24,37,19,37c-5,0-9.5-2-12.7-5.3
	C3,28.5,1,24,1,19c0-5,2-9.5,5.3-12.7C9.5,3,14,1,19,1L19,1z M28.2,9.8L28.2,9.8C25.8,7.4,22.6,6,19,6s-6.8,1.4-9.2,3.8
	C7.5,12.2,6,15.4,6,19c0,3.6,1.5,6.8,3.8,9.2c2.3,2.3,5.6,3.8,9.2,3.8s6.8-1.4,9.2-3.8c2.4-2.3,3.8-5.6,3.8-9.2
	C32,15.4,30.5,12.2,28.2,9.8L28.2,9.8z M49,24L49,24c3.8,0,7.3,1.6,9.9,4.1c2.5,2.5,4.1,6,4.1,9.9c0,3.9-1.6,7.3-4.1,9.9
	c-2.5,2.5-6,4.1-9.9,4.1c-3.9,0-7.4-1.6-9.9-4.1L39,47.8c-2.5-2.5-4-6-4-9.8c0-3.8,1.6-7.4,4.1-9.9l0.1-0.2C41.8,25.5,45.2,24,49,24
	L49,24z M55.1,31.9L55.1,31.9c-1.5-1.6-3.7-2.5-6.1-2.5c-2.4,0-4.5,0.9-6.1,2.4l-0.1,0.1c-1.5,1.6-2.5,3.7-2.5,6.1
	c0,2.3,0.9,4.5,2.5,6.1l0.1,0.1c1.6,1.6,3.8,2.5,6.2,2.5c2.4,0,4.6-1,6.1-2.5h0c1.6-1.6,2.5-3.8,2.5-6.1
	C57.7,35.6,56.7,33.4,55.1,31.9L55.1,31.9L55.1,31.9L55.1,31.9z M24,39L24,39c3.3,0,6.3,1.4,8.4,3.5l0,0l0,0.1
	c2.1,2.2,3.4,5.1,3.4,8.4c0,3.3-1.3,6.3-3.5,8.4h0l0,0.1C30.3,61.7,27.3,63,24,63c-3.3,0-6.3-1.3-8.5-3.5l0,0l-0.1,0
	C13.3,57.3,12,54.3,12,51c0-3.3,1.3-6.3,3.5-8.5v0l0.1,0C17.7,40.3,20.7,39,24,39L24,39z M28.6,46.4L28.6,46.4
	c-1.2-1.1-2.8-1.9-4.6-1.9c-1.8,0-3.5,0.8-4.6,1.9c-1.2,1.2-1.9,2.8-1.9,4.6c0,1.8,0.7,3.4,1.9,4.6c1.2,1.2,2.8,1.9,4.6,1.9
	c1.8,0,3.4-0.7,4.6-1.9c1.2-1.2,1.9-2.8,1.9-4.6C30.5,49.2,29.8,47.6,28.6,46.4L28.6,46.4z"/>
</svg>
