<?xml version="1.0" encoding="utf-8"?>
<!-- Generator: Adobe Illustrator 23.0.1, SVG Export Plug-In . SVG Version: 6.00 Build 0)  -->
<svg version="1.1" id="图层_1" xmlns="http://www.w3.org/2000/svg" xmlns:xlink="http://www.w3.org/1999/xlink" x="0px" y="0px"
	 width="537px" height="60px" viewBox="0 0 537 60" style="enable-background:new 0 0 537 60;" xml:space="preserve">
<style type="text/css">
	.st0{fill:#ffffff;}
</style>
<path class="st0" d="M383,6.9v20.9h-11.2V12.4c0,0,0-1.3,0-1.9c0-0.6-1.4-0.5-1.4-0.5h-20.6l1.4-7.4H378
	C378.1,2.5,382.9,2.1,383,6.9z M322.1,8.4h8.2l-1.7,8.1H322V24h12.9l3.4-15.6h9.3l1.4-6h-27.2v6C321.9,8.4,322.1,8.4,322.1,8.4z
	 M327.3,25.8h-5.2v33.1h6.9v-28h8.9v18.2c0,0,0,2.1,0,2.8c0,0.6-1.4,0.5-1.4,0.5h-6.4v6.6h12.7c0,0,4.8,0.5,4.9-4.3V25.8h-18.7
	H327.3z M359.7,11h-8.1v23.8h20.3v4.9h-22.2v7h22.1v2.3c0,0,0,1.3,0,1.9c0,0.6-1.4,0.5-1.4,0.5h-14.1l-2.2,7.4H378
	c0,0,4.8,0.5,4.9-4.3V28.8h-23.3L359.7,11L359.7,11z M207.8,9.8L178,58.9h9.1h2.9l20.6-34.2c1.6-2.6,3.3-2.7,3.2-1v14.1h-7.1
	l-6.5,10.5h14.1l0.1,10.4h22.4V1.2H221C215.3,1.6,211,4.8,207.8,9.8z M187.3,8.9l9.1-7.7h-17l-19,16.4l-4-10.2
	c-1.5-3.6-5-5.6-10.1-6.4l-16.8,0.1l11.9,32.8l-29.8,25h16.8l16.6-14l5.1,14h24.7L164,28.6L187.3,8.9z M49.5,11.7h13.8l6.3-10.5
	H39.6c-14.8,1.3-30,9.2-36.8,27.6C1.4,32.6,1.1,36.4,1,39.4v1.9C1.4,52.3,8.2,57.2,18.6,59h23.1l6.6-10.9h-11
	c-7.6-0.4-13.7-4.2-12.8-13.8C26,19.1,41.1,11.7,49.5,11.7z M93.3,1c-7.6,0.9-12,6.4-16.4,14.1L50.5,58.8h12.1l21.2-35.3
	c1.4-1.2,2.4-1,2.9,0.3v14.4h-7.8l-5.9,10.5h14.1l0.3,10.1h22.3L108,1C108,1,93.3,1,93.3,1z M267.4,12.4l-3.7-8.7h-6.6l3,8.7H267.4z
	 M279.5,23.3l3.7,8.7h6.6l-3-8.7H279.5z M267.4,23.3h-7.2l-3,8.7h6.6L267.4,23.3z M304.8,19.1v-3.3h12.7V8.4h-12.7V2h-10.4v11.6
	c0,0,0,2.7,0,3.4c0,0.6-1.2,0.5-1.2,0.5h-3.1v5.9h10.5C300.7,23.4,304.7,23.8,304.8,19.1z M258.9,21.5h9.5v12.1h9.8V21.5h9.5v-7.3
	h-9.5V2h-9.8v12.1h-9.5V21.5z M289.7,3.7h-6.6l-3.7,8.7h7.2L289.7,3.7z M312.4,50.8l-3.8-4.9l8.9-20.7H307l-2.5,13.4l-3.9-11h-10
	l9.5,17.5l-3.7,6.3c-0.2,0.3-0.7,0.2-1.3,0.2h-4v7.3h8.2c2.4,0.1,3.1-2.4,3.9-4.1l1.3-4l2.1,4c1,1.4,1.7,4.1,3.7,4.1h7.8v-7.3h-3.4
	C313.5,51.6,313.2,51.6,312.4,50.8z M513.4,14.3V7.1h-24.5V2h-12.6v5.1h-23.5v7.2H464c0,0,4.3,22.5-10.8,35.8l-1.3,8.7
	c0,0,23.6-8.1,23.6-32.1v-0.4h21.9v22.9c0,0,0,1.2,0,1.8c0,0.6-1.3,0.5-1.3,0.5h-12.6v7.3h20c0,0,4.6,0.5,4.8-4.1V23.1
	c-0.3-4.4-5-4-5-4h-28.1v-4.7C475.1,14.3,513.4,14.3,513.4,14.3z M423,2.2h-10.4v5h-25.5v7.5h25.5l-3.1,6.7
	c-0.1,0.1-0.1,0.1-0.1,0.2l-11.3,24.6c-1.3,2.6-5.3,2.3-5.3,2.3h-5.8v10.3h12.3c0,0,5.4,0.4,8.4-8.6l8.8-21c0.5-1.3,1.4-2.9,2.9,0.4
	l9.7,20.7c3.2,8.6,8.4,8.6,8.4,8.6h10.8V48.5h-5.5c0,0-4,0.3-5.3-2.3l-14.5-31.5h25.2V7.2H423V2.2z M288.5,47.2v-3.9h-7.8v1.5
	l-7.1,3.8l-7.1-4.2v-2.1h12.7h1.5h7.8h1.3v-6.8h-23.5v-2.1h-7.8v2.1h-1.4v6.8h1.4v4.9l9.1,4.3h-10.5v7.3h9.2c0,0,6.6,0.4,7.1-4.9
	c0,0,0.3,4.9,7.4,4.9h9.2v-7.3h-11.9L288.5,47.2z M527,1.1c-4.1,0-7.5,3.4-7.5,7.5s3.4,7.5,7.5,7.5c4.1,0,7.5-3.4,7.5-7.5
	S531.2,1.1,527,1.1z M523,13.3c-1.3-1.2-2.1-2.8-2.1-4.6s0.9-3.6,2.1-4.6V13.3z M527,14.8c-1.4,0-2.7-0.5-3.8-1.3h1.4V9.3h1.8
	c1.5,0.1,2.2,0.6,2.6,1.9c0.4,1.3,0.7,2,0.9,2.3h0.9C529.6,14.3,528.4,14.8,527,14.8z M524.6,8.3V4.9c0.3-0.1,0.9-0.1,1.8-0.1
	c1.7,0,3,0.5,3,1.8c0,1.1-1.2,1.8-2.9,1.8L524.6,8.3L524.6,8.3z M531.3,12.9c-0.2-0.5-0.5-1.3-0.8-2.2c-0.3-0.9-0.9-1.6-1.8-1.8l0,0
	c1.3-0.3,2.4-1.2,2.4-2.4c0-0.8-0.4-1.4-1-1.8c-0.8-0.6-1.9-0.9-3.8-0.9c-1.2,0-2.5,0.1-3.4,0.2c1.1-0.9,2.4-1.4,4-1.4
	c3.4,0,6.2,2.7,6.2,6.2C533.1,10.3,532.4,11.9,531.3,12.9z"/>
</svg>
