<?xml version="1.0" encoding="utf-8"?>
<!-- Generator: Adobe Illustrator 23.0.1, SVG Export Plug-In . SVG Version: 6.00 Build 0)  -->
<svg version="1.1" id="图层_2" xmlns="http://www.w3.org/2000/svg" xmlns:xlink="http://www.w3.org/1999/xlink" x="0px" y="0px"
	 width="64px" height="64px" viewBox="0 0 64 64" style="enable-background:new 0 0 64 64;" xml:space="preserve">
<style type="text/css">
	.st0{fill:#667898;}
</style>
<g>
	<path class="st0" d="M48.6,9.7L48.6,9.7H5.8v34.9h4.8V17V17c0-1.3,1.1-2.4,2.4-2.4h0.1h35.5V9.7L48.6,9.7z M24,59H13
		c-1.3,0-2.4-1.1-2.4-2.4v-0.1v-7.2H3.4C2.1,49.4,1,48.3,1,47v0V7.3C1,6,2.1,5,3.4,5l0,0h0.1H51c1.3,0,2.4,1.1,2.4,2.4v0.1v7.2h7.2
		c1.3,0,2.4,1.1,2.4,2.4V17v10l-4.8,0v-7.6H51l0,0l0,0H51h-0.1H15.4V47v0.1v7.2H24L24,59z"/>
	<path class="st0" d="M63,38.8c0-1.4-0.5-2.8-1.6-3.9l-6.3-6.3C54,27.5,52.6,27,51.2,27c-1.4,0-2.8,0.5-3.9,1.6
		C40.7,35.2,34,41.8,27.4,48.4l0,0l0,0v0l0,0l0,0v0l0,0l0,0l0,0v0l0,0v0l0,0v0l0,0l0,0l0,0h0v0l0,0h0v0l0,0l0,0l0,0.1l0,0l0,0.1v0v0
		l0,0l0,0v0v0v0l0,0v0v0v0v0v0.1l0,0v0l0,0v12.1c0,0.8,0.7,1.5,1.5,1.5h12.1h0h0l0,0h0h0l0.1,0h0l0,0l0.2,0l0.1-0.1h0l0,0l0,0l0,0
		l0,0l0,0l0,0l0,0l0,0l0,0l0.1-0.1c6.6-6.6,13.2-13.2,19.8-19.8C62.5,41.7,63,40.2,63,38.8L63,38.8L63,38.8z M44.8,35.4L44.8,35.4
		l1.8,1.8L32.4,51.3l-1.8-1.8L44.8,35.4L44.8,35.4z M30,60L30,60v-6.9l6.9,6.9H30L30,60z M34.5,53.3l14.1-14.1l2.1,2.1L36.5,55.4
		l-2.9-2.9L34.5,53.3z M40.5,59.4L40.5,59.4l-1.8-1.8l14.1-14.1l1.8,1.8L40.5,59.4L40.5,59.4z M60,38.8L60,38.8L60,38.8
		c0,0.7-0.3,1.3-0.7,1.8L57.9,42L57,42.9l-0.3,0.2l-9.9-9.9l1.2-1.2l1.4-1.4c0.5-0.5,1.2-0.7,1.8-0.7c0.7,0,1.3,0.2,1.8,0.7l6.3,6.3
		C59.8,37.5,60,38.2,60,38.8L60,38.8z"/>
</g>
</svg>
