<?xml version="1.0" encoding="utf-8"?>
<!-- Generator: Adobe Illustrator 23.0.1, SVG Export Plug-In . SVG Version: 6.00 Build 0)  -->
<svg version="1.1" id="图层_2" xmlns="http://www.w3.org/2000/svg" xmlns:xlink="http://www.w3.org/1999/xlink" x="0px" y="0px"
	 width="64px" height="64px" viewBox="0 0 64 64" style="enable-background:new 0 0 64 64;" xml:space="preserve">
<style type="text/css">
	.st0{fill:#667898;}
</style>
<path class="st0" d="M33,1.2L58.5,14c0.8,0.4,1.3,1.3,1.3,2.1h0v31.8c0,1-0.7,1.9-1.5,2.2L33,62.7c-0.7,0.4-1.5,0.3-2.1,0L5.5,50
	c-0.8-0.4-1.3-1.3-1.3-2.1l0,0V16.1c0-1,0.6-1.9,1.5-2.2L30.9,1.2C31.6,0.9,32.4,0.9,33,1.2L33,1.2z M23.5,10.3L23.5,10.3l21.2,10.6
	l8.5-4.2L32,6L23.5,10.3L23.5,10.3z M10.8,16.6L10.8,16.6L32,27.2l9.5-4.8L20.3,11.8L10.8,16.6L10.8,16.6z M9,18.9L9,18.9v27.6
	l21.6,10.8V29.7L9,18.9L9,18.9z M33.4,57.2L33.4,57.2L55,46.4V18.9c-7.2,3.6-14.4,7.2-21.6,10.8V57.2L33.4,57.2z"/>
</svg>
