<?xml version="1.0" encoding="utf-8"?>
<!-- Generator: Adobe Illustrator 23.0.1, SVG Export Plug-In . SVG Version: 6.00 Build 0)  -->
<svg version="1.1" id="图层_2" xmlns="http://www.w3.org/2000/svg" xmlns:xlink="http://www.w3.org/1999/xlink" x="0px" y="0px"
	 width="64px" height="64px" viewBox="0 0 64 64" style="enable-background:new 0 0 64 64;" xml:space="preserve">
<style type="text/css">
	.st0{fill:#667898;}
</style>
<path class="st0" d="M3.4,4.5L3.4,4.5h57.2C62,4.5,63,5.6,63,6.9V7v50.1c0,1.3-1,2.4-2.4,2.4h-0.1H3.4c-1.3,0-2.4-1.1-2.4-2.4v-0.1
	V43.8v0c0-0.8,0.6-1.4,1.5-1.4h11.3h0c0.8,0,1.4,0.6,1.4,1.4v3.4l8.8-8.8l-8.8-8.8V33v0c0,0.8-0.6,1.4-1.4,1.4H2.5
	C1.6,34.4,1,33.8,1,33v0V6.9C1,5.6,2.1,4.5,3.4,4.5L3.4,4.5z M5.8,45.2L5.8,45.2v9.5h52.4V22H5.8v9.5h6.6v-5.4
	c0-0.8,0.6-1.4,1.4-1.4c0.4,0,0.8,0.2,1,0.4h0L27,37.4c0.5,0.5,0.5,1.4,0,2L14.8,51.6c-0.6,0.5-1.5,0.5-2,0c-0.3-0.3-0.4-0.7-0.4-1
	v-5.4H5.8L5.8,45.2z M52.9,27.5L52.9,27.5c0.8,0,1.4,0.6,1.4,1.4c0,0.8-0.6,1.4-1.4,1.4H38.4c-0.8,0-1.5-0.6-1.5-1.4
	c0-0.8,0.6-1.4,1.5-1.4H52.9L52.9,27.5z M52.9,46.4L52.9,46.4c0.8,0,1.4,0.6,1.4,1.4c0,0.8-0.7,1.4-1.4,1.4H38.4
	c-0.8,0-1.5-0.6-1.5-1.4c0-0.8,0.6-1.4,1.5-1.4H52.9L52.9,46.4z M52.9,33.8L52.9,33.8c0.8,0,1.4,0.6,1.4,1.4c0,0.8-0.6,1.4-1.4,1.4
	H38.4c-0.8,0-1.5-0.6-1.5-1.4c0-0.8,0.6-1.4,1.5-1.4H52.9L52.9,33.8z M52.9,40.1L52.9,40.1c0.8,0,1.4,0.6,1.4,1.4S53.7,43,52.9,43
	H38.4c-0.8,0-1.5-0.6-1.5-1.4s0.6-1.4,1.5-1.4H52.9L52.9,40.1z M32.5,27.5L32.5,27.5c0.8,0,1.4,0.6,1.4,1.4c0,0.8-0.6,1.4-1.4,1.4
	h-0.1c-0.8,0-1.5-0.6-1.5-1.4c0-0.8,0.6-1.4,1.5-1.4H32.5L32.5,27.5z M32.5,46.4L32.5,46.4c0.8,0,1.4,0.6,1.4,1.4
	c0,0.8-0.7,1.4-1.4,1.4h-0.1c-0.8,0-1.5-0.6-1.5-1.4c0-0.8,0.6-1.4,1.5-1.4H32.5L32.5,46.4z M32.5,33.8L32.5,33.8
	c0.8,0,1.4,0.6,1.4,1.4c0,0.8-0.6,1.4-1.4,1.4h-0.1c-0.8,0-1.5-0.6-1.5-1.4c0-0.8,0.6-1.4,1.5-1.4H32.5L32.5,33.8z M32.5,40.1
	L32.5,40.1c0.8,0,1.4,0.6,1.4,1.4S33.3,43,32.5,43h-0.1c-0.8,0-1.5-0.6-1.5-1.4s0.6-1.4,1.5-1.4H32.5L32.5,40.1z M54.5,11.8
	L54.5,11.8c1.3,0,2.4,1.1,2.4,2.4c0,1.3-1,2.4-2.4,2.4c-1.3,0-2.4-1.1-2.4-2.4C52.1,12.9,53.2,11.8,54.5,11.8L54.5,11.8z M48.7,11.8
	L48.7,11.8c1.3,0,2.4,1.1,2.4,2.4c0,1.3-1.1,2.4-2.4,2.4c-1.3,0-2.4-1.1-2.4-2.4C46.3,12.9,47.3,11.8,48.7,11.8L48.7,11.8z
	 M42.8,11.8L42.8,11.8c1.3,0,2.4,1.1,2.4,2.4c0,1.3-1,2.4-2.4,2.4c-1.3,0-2.4-1.1-2.4-2.4C40.4,12.9,41.5,11.8,42.8,11.8L42.8,11.8z
	 M5.8,19.2L5.8,19.2h52.4V9.3H5.8V19.2L5.8,19.2z"/>
</svg>
