<?xml version="1.0" encoding="utf-8"?>
<!-- Generator: Adobe Illustrator 23.0.1, SVG Export Plug-In . SVG Version: 6.00 Build 0)  -->
<svg version="1.1" id="图层_2" xmlns="http://www.w3.org/2000/svg" xmlns:xlink="http://www.w3.org/1999/xlink" x="0px" y="0px"
	 width="64px" height="64px" viewBox="0 0 64 64" style="enable-background:new 0 0 64 64;" xml:space="preserve">
<style type="text/css">
	.st0{fill:#667898;}
</style>
<path class="st0" d="M53,38.7c-0.7-0.3-1.3-0.5-1.9-0.8c-0.6-0.3-1.3-0.6-1.9-0.9L49,36.8c0.7-2.4,0.8-4.9,0.5-7.4
	c-0.3-2.3-1.1-4.6-2.4-6.7c0.8,0,1.9,0.2,3.1,0.5c1.2,0.3,2.4,0.5,3.6,0.6c1.4,0.1,2.7-0.2,3.9-0.6c1.2-0.5,2.3-1.2,3.1-2.2
	c1-1.1,1.6-2.4,1.9-3.7c0.3-1.4,0.3-2.8,0-4.3c-0.3-1.4-0.9-2.8-1.7-4.2c-0.8-1.3-1.8-2.5-2.9-3.6l0,0c-1.2-1.1-2.5-2-3.9-2.6h0
	c-1.4-0.7-2.8-1.1-4.2-1.2h-0.1C42.7,0.8,40.6,6,38.6,11c-0.3,0.7-0.5,1.3-0.8,1.9c-0.3,0.7-0.6,1.3-0.9,1.9L36.8,15
	c-2.4-0.7-4.9-0.9-7.4-0.5c-2.3,0.3-4.6,1.1-6.7,2.4c0-0.8,0.3-2,0.5-3.1c0.3-1.2,0.5-2.4,0.6-3.6c0.1-1.4-0.2-2.7-0.6-3.9
	c-0.5-1.2-1.2-2.3-2.2-3.2c-1.1-0.9-2.3-1.6-3.7-1.9c-1.3-0.3-2.8-0.3-4.3,0c-1.4,0.3-2.9,0.8-4.2,1.6C7.6,3.7,6.4,4.7,5.4,5.8v0
	c-1.1,1.2-2,2.5-2.6,3.9v0l0,0c-0.6,1.4-1.1,2.8-1.2,4.2V14C0.8,21.3,6,23.4,11,25.4c0.7,0.3,1.4,0.5,1.9,0.8v0
	c0.7,0.3,1.3,0.6,1.9,0.9l0.1,0.1c-0.7,2.4-0.8,4.9-0.5,7.4c0.4,2.3,1.1,4.6,2.4,6.7c-0.8,0-2-0.2-3.1-0.5c-1.2-0.3-2.4-0.5-3.6-0.6
	c-1.4-0.1-2.7,0.2-3.9,0.6c-1.2,0.5-2.3,1.2-3.2,2.2v0c-0.9,1.1-1.6,2.3-1.9,3.7c-0.3,1.4-0.3,2.8,0,4.3c0.3,1.4,0.9,2.8,1.7,4.2
	c0.8,1.3,1.8,2.5,3,3.6v0c1.2,1.1,2.5,2,3.8,2.6h0c1.4,0.7,2.8,1.1,4.2,1.2H14c7.3,0.8,9.3-4.4,11.3-9.4c0.3-0.7,0.5-1.3,0.8-1.9
	l0,0c0.3-0.7,0.6-1.3,0.9-1.9l0.1-0.2c2.4,0.7,4.9,0.9,7.4,0.5c2.3-0.4,4.6-1.1,6.7-2.4c0,0.8-0.2,2-0.5,3.1
	c-0.3,1.2-0.6,2.4-0.6,3.6c-0.1,1.4,0.2,2.7,0.6,3.9c0.5,1.2,1.2,2.3,2.1,3.2c1.1,0.9,2.4,1.6,3.7,1.9c1.3,0.3,2.8,0.3,4.3,0
	c1.4-0.3,2.8-0.8,4.2-1.7c1.3-0.8,2.5-1.7,3.6-3l0,0c1.1-1.2,2-2.5,2.6-3.9h0l0,0c0.6-1.4,1-2.8,1.2-4.2l0-0.1
	C63.2,42.7,58,40.6,53,38.7L53,38.7z M57.7,49.5L57.7,49.5c-0.1,0.9-0.3,1.8-0.8,2.7c-0.4,1-1.1,1.9-1.8,2.7h0
	c-0.8,0.8-1.6,1.5-2.5,2.1h0c-0.9,0.5-1.8,0.9-2.7,1.1c-0.8,0.1-1.6,0.2-2.3,0C47,58,46.5,57.7,46,57.4c-0.4-0.4-0.7-0.8-0.9-1.3
	c-0.2-0.6-0.3-1.3-0.3-2c0-0.7,0.3-1.7,0.5-2.7c0.8-3.8,1.8-7.9-3-9.6c-0.8-0.3-1.7-0.1-2.4,0.5c-1.8,1.4-3.9,2.3-6.2,2.6
	c-2.3,0.3-4.6,0.1-6.8-0.8c-1-0.4-2.2-0.1-2.8,0.8c-0.5,0.7-0.9,1.4-1.4,2.2c-0.4,0.7-0.7,1.5-1.1,2.3h0c-0.3,0.7-0.6,1.4-0.8,2
	c-1.3,3.4-2.7,6.8-6.4,6.5h-0.1c-0.9-0.1-1.8-0.4-2.7-0.8v0c-0.9-0.4-1.8-1-2.7-1.8h0h0c-0.8-0.8-1.6-1.6-2.1-2.5v0
	c-0.6-0.9-0.9-1.8-1.1-2.7c-0.2-0.8-0.2-1.6,0-2.3C6,47,6.3,46.5,6.7,46l0,0c0.4-0.4,0.8-0.7,1.3-0.9c0.6-0.2,1.3-0.3,2-0.3
	c0.7,0,1.7,0.3,2.7,0.5c3.8,0.9,7.9,1.8,9.5-2.9c0.3-0.9,0.1-1.8-0.5-2.4c-1.4-1.8-2.3-3.9-2.6-6.1c-0.3-2.3-0.1-4.6,0.8-6.8
	c0.4-1,0.1-2.2-0.8-2.8c-0.7-0.5-1.4-0.9-2.1-1.3c-0.7-0.4-1.5-0.7-2.3-1.1v0c-0.7-0.3-1.4-0.6-2.1-0.8c-3.4-1.3-6.8-2.7-6.4-6.4
	v-0.1c0.1-0.9,0.4-1.8,0.8-2.7c0.4-0.9,1.1-1.9,1.8-2.7l0,0v0c0.8-0.9,1.6-1.6,2.5-2.1v0v0c0.9-0.5,1.8-0.9,2.7-1.1
	c0.8-0.2,1.6-0.2,2.3,0C17,6,17.5,6.3,18,6.6v0C18.4,7,18.6,7.5,18.8,8c0.2,0.6,0.3,1.3,0.3,2c0,0.7-0.3,1.7-0.5,2.7
	c-0.9,3.8-1.8,7.9,3,9.5c0.8,0.3,1.7,0.1,2.3-0.5c1.8-1.4,4-2.3,6.2-2.6c2.3-0.3,4.6,0,6.8,0.8c1,0.4,2.2,0.1,2.8-0.8
	c0.5-0.7,1-1.4,1.4-2.2c0.4-0.7,0.7-1.5,1.1-2.3l0,0c0.3-0.7,0.6-1.4,0.9-2c1.3-3.3,2.7-6.8,6.4-6.4h0.1c0.9,0.1,1.8,0.4,2.7,0.8
	c0.9,0.5,1.9,1.1,2.7,1.8c0.8,0.8,1.5,1.6,2.1,2.5c0.5,0.9,0.9,1.8,1.1,2.6c0.2,0.8,0.2,1.6,0,2.3C58,17,57.7,17.5,57.3,18l0,0l0,0
	c-0.4,0.4-0.8,0.7-1.3,0.9c-0.6,0.3-1.3,0.3-2,0.3c-0.7,0-1.7-0.3-2.7-0.5c-3.9-0.9-7.9-1.8-9.6,2.9c-0.3,0.9-0.1,1.8,0.5,2.4
	c1.4,1.8,2.2,3.9,2.6,6.1c0.3,2.3,0.1,4.6-0.8,6.8c-0.4,1-0.1,2.2,0.8,2.8c0.6,0.5,1.4,1,2.1,1.4c0.7,0.4,1.5,0.8,2.3,1.1l0,0
	c0.7,0.3,1.4,0.6,2,0.8c3.4,1.3,6.8,2.7,6.4,6.4V49.5L57.7,49.5z M25.5,26.1L25.5,26.1c-3.2,3.6-3,9.2,0.6,12.4
	c3.6,3.2,9.1,2.9,12.4-0.7c3.2-3.6,3-9.2-0.6-12.4C34.3,22.3,28.7,22.5,25.5,26.1L25.5,26.1z M36.4,36L36.4,36
	c-2.2,2.4-6,2.6-8.3,0.4c-2.4-2.2-2.6-5.9-0.4-8.3c2.2-2.4,5.9-2.6,8.3-0.4C38.4,29.8,38.6,33.6,36.4,36L36.4,36z"/>
</svg>
