<?xml version="1.0" encoding="utf-8"?>
<!-- Generator: Adobe Illustrator 23.0.1, SVG Export Plug-In . SVG Version: 6.00 Build 0)  -->
<svg version="1.1" id="图层_2" xmlns="http://www.w3.org/2000/svg" xmlns:xlink="http://www.w3.org/1999/xlink" x="0px" y="0px"
	 width="64px" height="64px" viewBox="0 0 64 64" style="enable-background:new 0 0 64 64;" xml:space="preserve">
<style type="text/css">
	.st0{fill:#F7C022;}
</style>
<g>
	<path class="st0" d="M60.6,5.5H3.4C2.1,5.5,1,6.6,1,7.9v48.2c0,1.3,1.1,2.4,2.4,2.4h57.2c1.3,0,2.4-1.1,2.4-2.4V7.9
		C63,6.6,61.9,5.5,60.6,5.5L60.6,5.5z M58.2,53.7L58.2,53.7H5.8V10.3h52.5V53.7L58.2,53.7z"/>
	<path class="st0" d="M52,33.1L52,33.1H34.4L46,46.3l0.2-0.2C49.6,42.8,51.7,38.2,52,33.1L52,33.1z M33.1,30.9L33.1,30.9H52
		C51.5,20.7,43.3,12.6,33.1,12V30.9L33.1,30.9z M44.4,47.7L44.4,47.7l-13.1-15l0,0l0,0l0,0l0,0l0,0l0,0l0,0h0v0h0l0,0l0,0l0,0l0,0h0
		v0h0l0,0l0,0l0,0l0,0v0l0,0h0v0l0,0v0l0,0l0,0v0v0l0,0v0l0,0v0l0,0l0,0l0,0l0,0l0,0v0l0,0l0,0v0l0,0h0v-0.1l0,0v0l0,0l0,0v0l0,0v0
		v0l0,0v0l0,0v0v0v0v0v0v0l0,0v0l0,0v0l0,0v0v0v0V12C20.4,12.6,12,21.4,12,32c0,11,9,20,20,20C36.7,52,41,50.4,44.4,47.7L44.4,47.7z
		"/>
</g>
</svg>
